<svg width="23" height="24" viewBox="0 0 23 24" fill="none" xmlns="http://www.w3.org/2000/svg">
<g id="bx:search-alt">
<path id="Vector" d="M9.65797 17.5259C11.2928 17.5256 12.8806 16.9783 14.1684 15.9712L18.2173 20.0201L19.5197 18.7177L15.4707 14.6688C16.4784 13.3809 17.026 11.7928 17.0264 10.1575C17.0264 6.09472 13.7207 2.78906 9.65797 2.78906C5.59521 2.78906 2.28955 6.09472 2.28955 10.1575C2.28955 14.2202 5.59521 17.5259 9.65797 17.5259ZM9.65797 4.63117C12.7057 4.63117 15.1843 7.10972 15.1843 10.1575C15.1843 13.2052 12.7057 15.6838 9.65797 15.6838C6.61021 15.6838 4.13166 13.2052 4.13166 10.1575C4.13166 7.10972 6.61021 4.63117 9.65797 4.63117Z" fill="white"/>
<path id="Vector_2" d="M10.9581 8.85563C11.3072 9.20563 11.4997 9.668 11.4997 10.158H13.3418C13.3426 9.67392 13.2475 9.19448 13.0619 8.74739C12.8763 8.30031 12.6039 7.89444 12.2605 7.55326C10.866 6.16063 8.44824 6.16063 7.05469 7.55326L8.35521 8.85747C9.05521 8.15932 10.2618 8.16116 10.9581 8.85563Z" fill="white"/>
</g>
</svg>
