<svg width="14" height="14" viewBox="0 0 14 14" fill="none" xmlns="http://www.w3.org/2000/svg">
<g id="clarity:book-line" clip-path="url(#clip0_147_3216)">
<path id="Vector" d="M3.88867 2.02246H10.8887V2.62524H3.88867V2.02246Z" fill="#73CA5C"/>
<path id="Vector_2" d="M11.2778 3.11068H3.8345C3.73526 3.10927 3.63733 3.08778 3.54661 3.0475C3.4559 3.00721 3.37429 2.94898 3.3067 2.8763C3.2391 2.80361 3.18693 2.718 3.15333 2.62461C3.11972 2.53121 3.10538 2.43198 3.11117 2.3329C3.11068 2.13572 3.18511 1.94571 3.3194 1.80132C3.45368 1.65692 3.6378 1.56892 3.8345 1.55512H11.2778C11.381 1.55512 11.4799 1.51415 11.5528 1.44122C11.6257 1.36829 11.6667 1.26937 11.6667 1.16623C11.6667 1.06309 11.6257 0.964177 11.5528 0.891247C11.4799 0.818316 11.381 0.777344 11.2778 0.777344H3.8345C3.43145 0.791459 3.04964 0.961558 2.76959 1.25177C2.48954 1.54197 2.33314 1.9296 2.33339 2.3329C2.32963 2.39636 2.32963 2.45999 2.33339 2.52345C2.32964 2.55445 2.32964 2.58579 2.33339 2.61679V11.6662C2.33314 12.0695 2.48954 12.4572 2.76959 12.7474C3.04964 13.0376 3.43145 13.2077 3.8345 13.2218H11.2778C11.381 13.2218 11.4799 13.1808 11.5528 13.1079C11.6257 13.035 11.6667 12.936 11.6667 12.8329V3.52679C11.6669 3.42099 11.6269 3.31907 11.5546 3.24177C11.4824 3.16448 11.3834 3.1176 11.2778 3.11068ZM10.8889 12.444H3.8345C3.6378 12.4302 3.45368 12.3422 3.3194 12.1978C3.18511 12.0534 3.11068 11.8634 3.11117 11.6662V3.71345C3.33228 3.83544 3.58208 3.89587 3.8345 3.88845H10.8889V12.444Z" fill="#73CA5C"/>
</g>
<defs>
<clipPath id="clip0_147_3216">
<rect width="14" height="14" fill="white"/>
</clipPath>
</defs>
</svg>
