<svg width="20" height="20" viewBox="0 0 20 20" fill="none" xmlns="http://www.w3.org/2000/svg">
<g id="heroicons:home-solid">
<g id="Group">
<path id="Vector" d="M9.55812 3.20093C9.67531 3.08389 9.83416 3.01814 9.99979 3.01814C10.1654 3.01814 10.3243 3.08389 10.4415 3.20093L17.6831 10.4426C17.7408 10.5023 17.8098 10.5498 17.8861 10.5826C17.9623 10.6153 18.0443 10.6325 18.1273 10.6332C18.2103 10.6338 18.2926 10.618 18.3694 10.5865C18.4462 10.5551 18.516 10.5086 18.5746 10.4499C18.6333 10.3912 18.6797 10.3214 18.711 10.2446C18.7424 10.1678 18.7582 10.0854 18.7574 10.0025C18.7567 9.91948 18.7394 9.83747 18.7066 9.76123C18.6738 9.685 18.6262 9.61606 18.5665 9.55843L11.3256 2.31676C11.1515 2.14265 10.9448 2.00454 10.7173 1.91031C10.4898 1.81608 10.246 1.76758 9.99979 1.76758C9.75356 1.76758 9.50974 1.81608 9.28225 1.91031C9.05477 2.00454 8.84807 2.14265 8.67396 2.31676L1.43229 9.55843C1.37262 9.61611 1.32504 9.6851 1.29232 9.76137C1.2596 9.83763 1.2424 9.91965 1.24172 10.0026C1.24104 10.0856 1.25689 10.1679 1.28835 10.2447C1.31981 10.3215 1.36626 10.3913 1.42497 10.4499C1.48368 10.5086 1.55348 10.555 1.6303 10.5863C1.70713 10.6177 1.78944 10.6335 1.87242 10.6327C1.95541 10.632 2.03741 10.6147 2.11365 10.5819C2.18989 10.5491 2.25883 10.5015 2.31646 10.4418L9.55812 3.20093Z" fill="black"/>
<path id="Vector_2" d="M10 4.52637L16.7992 11.3255C16.8242 11.35 16.8494 11.3739 16.875 11.3972V16.5622C16.875 17.4247 16.175 18.1247 15.3125 18.1247H12.5C12.3342 18.1247 12.1753 18.0589 12.0581 17.9416C11.9408 17.8244 11.875 17.6655 11.875 17.4997V13.7497C11.875 13.5839 11.8092 13.425 11.6919 13.3078C11.5747 13.1905 11.4158 13.1247 11.25 13.1247H8.75C8.58424 13.1247 8.42527 13.1905 8.30806 13.3078C8.19085 13.425 8.125 13.5839 8.125 13.7497V17.4997C8.125 17.6655 8.05915 17.8244 7.94194 17.9416C7.82473 18.0589 7.66576 18.1247 7.5 18.1247H4.6875C4.2731 18.1247 3.87567 17.9601 3.58265 17.6671C3.28962 17.374 3.125 16.9766 3.125 16.5622V11.3972L3.20083 11.3255L10 4.52637Z" fill="black"/>
</g>
</g>
</svg>
