<svg width="17" height="16" viewBox="0 0 17 16" fill="none" xmlns="http://www.w3.org/2000/svg">
<g id="mdi:progress-check">
<path id="Vector" d="M9.1667 1.35352V2.70018C12.0934 3.06018 14.1667 5.72018 13.8067 8.64685C13.5 11.0735 11.5934 13.0002 9.1667 13.2868V14.6202C12.8334 14.2535 15.5 11.0002 15.1334 7.33352C14.8334 4.16685 12.32 1.66685 9.1667 1.35352ZM7.83337 1.37352C6.53337 1.50018 5.29337 2.00018 4.28003 2.84018L5.23337 3.82685C5.98003 3.22685 6.88003 2.84018 7.83337 2.70685V1.37352ZM3.34003 3.78018C2.50647 4.79174 1.9935 6.02891 1.8667 7.33352H3.20003C3.3267 6.38685 3.70003 5.48685 4.29337 4.73352L3.34003 3.78018ZM10.8334 5.66685L7.58003 8.92018L6.1667 7.50685L5.46003 8.21352L7.58003 10.3335L11.54 6.37352L10.8334 5.66685ZM1.87337 8.66685C2.0067 9.97352 2.52003 11.2068 3.3467 12.2202L4.29337 11.2668C3.70465 10.5132 3.32934 9.61525 3.2067 8.66685H1.87337ZM5.23337 12.2468L4.28003 13.1602C5.28989 14.002 6.52621 14.5262 7.83337 14.6668V13.3335C6.88497 13.2109 5.98697 12.8356 5.23337 12.2468Z" fill="#73CA5C"/>
</g>
</svg>
