<svg width="19" height="19" viewBox="0 0 19 19" fill="none" xmlns="http://www.w3.org/2000/svg">
<g id="ph:play">
<path id="Vector" d="M17.2484 8.49767L6.555 1.95603C6.37471 1.84564 6.16822 1.78537 5.95685 1.78145C5.74549 1.77754 5.53691 1.83012 5.35266 1.93377C5.17016 2.03581 5.01813 2.18461 4.91222 2.36488C4.8063 2.54516 4.7503 2.75039 4.75 2.95947V16.0413C4.75138 16.3549 4.87724 16.6552 5.09991 16.876C5.32259 17.0969 5.62386 17.2203 5.9375 17.2191C6.15641 17.219 6.37107 17.1587 6.55797 17.0447L17.2484 10.5031C17.4203 10.3983 17.5623 10.2512 17.6608 10.0757C17.7594 9.90022 17.8111 9.70236 17.8111 9.50111C17.8111 9.29987 17.7594 9.10201 17.6608 8.92654C17.5623 8.75107 17.4203 8.6039 17.2484 8.49916V8.49767ZM5.9375 16.0272V2.96912L16.6124 9.50037L5.9375 16.0272Z" fill="#FCFCFC"/>
</g>
</svg>
